<svg xmlns="http://www.w3.org/2000/svg" width="1200" height="680" viewBox="0 0 1200 680" role="img" aria-label="Wisdoverse Nexus overview mock screenshot">
  <defs>
    <linearGradient id="bg" x1="0" y1="0" x2="1" y2="1">
      <stop offset="0%" stop-color="#0B132B"/>
      <stop offset="100%" stop-color="#1C2541"/>
    </linearGradient>
  </defs>
  <rect width="1200" height="680" fill="url(#bg)"/>
  <rect x="40" y="40" width="1120" height="600" rx="20" fill="#F8FAFC"/>
  <rect x="40" y="40" width="1120" height="58" rx="20" fill="#E2E8F0"/>
  <circle cx="78" cy="69" r="9" fill="#EF4444"/>
  <circle cx="104" cy="69" r="9" fill="#F59E0B"/>
  <circle cx="130" cy="69" r="9" fill="#10B981"/>
  <text x="170" y="76" font-family="Arial, sans-serif" font-size="22" fill="#0F172A">Wisdoverse Nexus Console + AI Collaboration</text>

  <rect x="70" y="122" width="260" height="488" rx="12" fill="#111827"/>
  <text x="95" y="162" font-family="Arial, sans-serif" font-size="20" fill="#E5E7EB">Rooms</text>
  <rect x="90" y="185" width="220" height="42" rx="8" fill="#1F2937"/>
  <text x="104" y="212" font-family="Arial, sans-serif" font-size="16" fill="#D1D5DB"># general</text>
  <rect x="90" y="236" width="220" height="42" rx="8" fill="#374151"/>
  <text x="104" y="263" font-family="Arial, sans-serif" font-size="16" fill="#D1D5DB"># architecture</text>

  <rect x="355" y="122" width="775" height="350" rx="12" fill="#FFFFFF" stroke="#CBD5E1"/>
  <text x="385" y="162" font-family="Arial, sans-serif" font-size="20" fill="#0F172A">#general</text>
  <rect x="385" y="186" width="710" height="78" rx="10" fill="#F1F5F9"/>
  <text x="405" y="216" font-family="Arial, sans-serif" font-size="15" fill="#0F172A">alice@human: Can AI summarize yesterday's incident thread?</text>
  <text x="405" y="240" font-family="Arial, sans-serif" font-size="14" fill="#334155">nexis:ai:openai/gpt-4: Summary generated with action items.</text>

  <rect x="385" y="278" width="710" height="78" rx="10" fill="#ECFDF5"/>
  <text x="405" y="308" font-family="Arial, sans-serif" font-size="15" fill="#14532D">nexis:ai:anthropic/claude: Added risk analysis and rollback plan.</text>
  <text x="405" y="332" font-family="Arial, sans-serif" font-size="14" fill="#166534">Multi-AI collaboration complete.</text>

  <rect x="355" y="490" width="775" height="120" rx="12" fill="#111827"/>
  <text x="385" y="530" font-family="Arial, sans-serif" font-size="18" fill="#E5E7EB">Command Input</text>
  <text x="385" y="560" font-family="Courier New, monospace" font-size="17" fill="#93C5FD">$ nexis create-room general</text>
  <text x="385" y="587" font-family="Courier New, monospace" font-size="17" fill="#86EFAC">Room created: general</text>
</svg>
